M48
; DRILL file {KiCad 9.0.2} date 2025-10-16T21:49:13+1100
; FORMAT={-:-/ absolute / metric / decimal}
; #@! TF.CreationDate,2025-10-16T21:49:13+11:00
; #@! TF.GenerationSoftware,Kicad,Pcbnew,9.0.2
; #@! TF.FileFunction,Plated,1,2,PTH
FMAT,2
METRIC
; #@! TA.AperFunction,Plated,PTH,ViaDrill
T1C0.300
; #@! TA.AperFunction,Plated,PTH,ComponentDrill
T2C1.040
%
G90
G05
T1
X143.8Y-97.0
X144.0Y-101.8
X144.0Y-106.4
X144.0Y-110.176
X144.0Y-112.74
X144.2Y-118.7
X145.4Y-97.0
X145.465Y-110.9
X145.61Y-106.4
X145.75Y-115.25
X148.6Y-100.25
X149.25Y-113.75
X149.7Y-100.25
X150.75Y-100.25
X150.925Y-118.325
X151.5Y-111.25
X152.0Y-100.25
X152.0Y-103.0
X153.0Y-100.25
X153.0Y-103.0
X154.125Y-96.9
X154.25Y-102.25
X155.0Y-113.75
X155.125Y-111.125
X155.5Y-102.25
X155.5Y-112.0
X155.6Y-103.2
X155.75Y-90.75
X155.9Y-105.3
X157.5Y-101.5
X157.5Y-103.25
X157.5Y-105.25
X157.59Y-107.84
X157.675Y-97.1
X158.1Y-100.3
X158.1Y-104.5
X158.1Y-110.0
X158.4Y-101.5
X158.961Y-99.738
X158.999Y-115.6
X159.0Y-108.3
X159.024Y-104.576
X159.1Y-120.6
X159.2Y-101.65
X159.6Y-109.6
X159.8Y-103.1
X159.8Y-110.6
X160.1Y-108.2
X160.198Y-113.15
T2
X140.6Y-87.52
X140.6Y-90.06
X140.6Y-92.6
X140.6Y-95.14
X140.6Y-97.68
X140.6Y-100.22
X140.6Y-102.76
X140.6Y-105.3
X140.6Y-107.84
X140.6Y-110.38
X140.6Y-112.92
X140.6Y-115.46
X140.6Y-118.0
X140.6Y-120.54
X140.6Y-123.08
X162.8Y-87.52
X162.8Y-90.06
X162.8Y-92.6
X162.8Y-95.14
X162.8Y-97.68
X162.8Y-100.22
X162.8Y-102.76
X162.8Y-105.3
X162.8Y-107.84
X162.8Y-110.38
X162.8Y-112.92
X162.8Y-115.46
X162.8Y-118.0
X162.8Y-120.54
X162.8Y-123.08
M30
